<?xml version="1.0" encoding="UTF-8" standalone="no"?>
<!-- Created with Inkscape (http://www.inkscape.org/) -->

<svg
   xmlns:dc="http://purl.org/dc/elements/1.1/"
   xmlns:cc="http://creativecommons.org/ns#"
   xmlns:rdf="http://www.w3.org/1999/02/22-rdf-syntax-ns#"
   xmlns:svg="http://www.w3.org/2000/svg"
   xmlns="http://www.w3.org/2000/svg"
   xmlns:sodipodi="http://sodipodi.sourceforge.net/DTD/sodipodi-0.dtd"
   xmlns:inkscape="http://www.inkscape.org/namespaces/inkscape"
   version="1.1"
   id="svg1838"
   width="332.57132"
   height="181.84"
   viewBox="0 0 332.57132 181.84"
   sodipodi:docname="1.svg"
   inkscape:version="0.92.3 (2405546, 2018-03-11)">
  <metadata
     id="metadata1844">
    <rdf:RDF>
      <cc:Work
         rdf:about="">
        <dc:format>image/svg+xml</dc:format>
        <dc:type
           rdf:resource="http://purl.org/dc/dcmitype/StillImage" />
        <dc:title></dc:title>
      </cc:Work>
    </rdf:RDF>
  </metadata>
  <defs
     id="defs1842" />
  <sodipodi:namedview
     pagecolor="#ffffff"
     bordercolor="#666666"
     borderopacity="1"
     objecttolerance="10"
     gridtolerance="10"
     guidetolerance="10"
     inkscape:pageopacity="0"
     inkscape:pageshadow="2"
     inkscape:window-width="1366"
     inkscape:window-height="705"
     id="namedview1840"
     showgrid="false"
     fit-margin-top="0.2"
     fit-margin-left="0.2"
     fit-margin-right="0.2"
     fit-margin-bottom="0.2"
     inkscape:zoom="1.6701291"
     inkscape:cx="127.0759"
     inkscape:cy="133.78237"
     inkscape:window-x="0"
     inkscape:window-y="30"
     inkscape:window-maximized="1"
     inkscape:current-layer="svg1838" />
  <path
     style="fill:#000000;stroke-width:0.95999998"
     d="m 96.228726,180.09496 c -0.74919,-1.95236 0.26703,-25.2514 1.54467,-35.41496 0.53099,-4.224 1.42633,-14.808 1.98965,-23.52 0.563324,-8.712 1.185264,-18.33191 1.382084,-21.37757 l 0.35786,-5.53758 -6.328444,0.64838 c -3.48064,0.3566 -9.59639,1.33905 -13.590558,2.18322 l -7.262112,1.53486 0.03072,8.63434 c 0.0169,4.74889 0.401446,13.66274 0.85456,19.80856 l 0.823845,11.17421 -2.054561,1.09956 -2.054564,1.09958 -1.806994,-0.96708 -1.806993,-0.96708 -0.561207,-4.10669 c -0.308663,-2.25869 -0.847779,-11.04079 -1.198037,-19.51578 l -0.636832,-15.40906 -5.394968,0.65897 c -8.947899,1.09294 -27.932155,4.65196 -36.354969,6.81554 l -7.92,2.03443 v 1.35395 c 0,2.63039 -5.074255,18.94753 -7.739675,24.88825 l -2.700882,6.01975 -2.149166,-0.41389 c -1.182041,-0.22764 -2.442339,-0.88826 -2.80066,-1.46803 L 0.2,138.2967 2.945932,130.33021 C 5.961777,121.58064 8.646879,110.00033 11.416103,93.8 c 2.207075,-12.911683 6.498359,-32.666045 7.86556,-36.208076 0.553686,-1.434443 1.716242,-2.831906 2.583457,-3.105475 2.925835,-0.922975 26.444826,-3.261794 39.247625,-3.902935 l 9.881954,0.0424 3.760225,1.770591 0.93131,2.44953 -0.914894,7.956981 c -0.50319,4.376339 -0.918172,12.219366 -0.922179,17.428946 l -0.0073,9.471968 2.16,-0.57567 c 1.188,-0.31663 7.991995,-1.48941 15.119995,-2.60617 22.102644,-3.462899 41.168524,-8.157877 62.880004,-15.484223 3.168,-1.069014 6.9538,-1.954565 8.41288,-1.967892 l 2.6529,-0.02423 1.84734,1.671827 1.84735,1.671827 -0.88359,2.324016 c -0.82583,2.172099 -12.40839,18.987585 -23.78087,34.524925 -2.7368,3.73908 -4.97601,7.2496 -4.97601,7.80116 v 1.00281 l 11.76,-4.70739 c 28.21151,-11.29272 59.15015,-20.9262 84.65767,-26.36015 6.30172,-1.34247 16.23772,-3.678295 22.08,-5.190718 5.84229,-1.512412 12.90004,-3.048488 15.68388,-3.413489 2.78386,-0.365 5.24164,-0.955037 5.46177,-1.311192 0.2201,-0.356155 0.48991,-17.255214 0.59953,-37.553464 C 279.47436,19.207659 279.64162,2.06 279.88451,1.4 l 0.56279,-1.2 h 2.56368 c 1.41003,0 3.57385,0.707543 4.80849,1.572318 l 2.24479,1.572318 -0.63629,16.427682 c -0.96384,24.88378 -1.49345,53.591483 -1.0033,54.384556 0.23991,0.388184 2.06093,0.148095 4.04671,-0.533531 1.98578,-0.681627 10.82234,-2.788439 19.63681,-4.681805 l 16.02631,-3.442484 1.50198,0.576362 c 0.82608,0.317 1.77937,1.681598 2.11841,3.032442 l 0.61644,2.456081 -2.09471,1.696194 -2.09471,1.696194 -5.49002,1.045766 c -8.43237,1.606243 -17.61777,3.632896 -32.85001,7.247977 -20.50887,4.86739 -42.50512,9.88493 -52.32,11.93464 -28.7922,6.01289 -48.49852,12.07509 -89.17764,27.43346 -14.85073,5.60689 -18.70176,6.39375 -21.18911,4.32943 l -1.47325,-1.22269 v -2.43653 -2.43653 l 5.60753,-7.76592 c 3.08414,-4.27126 7.895,-11.22193 10.69081,-15.44593 2.7958,-4.224 6.34726,-9.516 7.89212,-11.76 l 2.80884,-4.08 h -1.14571 c -0.63014,0 -4.86898,1.227178 -9.41965,2.72706 -4.55067,1.49989 -12.59394,3.71036 -17.87394,4.91216 -11.8159,2.68946 -12.23289,2.89196 -13.09623,6.35984 -0.88611,3.55931 -2.60863,22.61254 -3.72479,41.20094 -0.47557,7.92 -1.3047,17.208 -1.84252,20.64 -0.53782,3.432 -0.98654,9.7888 -0.99715,14.12623 l -0.0193,7.88621 -1.85689,0.99379 c -1.0213,0.54657 -2.762854,0.99377 -3.870134,0.99377 h -2.01325 z M 27.698896,97.70191 C 35.889118,95.58944 52.509365,92.4524 59.231665,91.75016 62.548049,91.40372 65.422131,90.8592 65.618514,90.54013 65.814896,90.22106 66.107183,82.832 66.26804,74.12 l 0.292467,-15.84 -7.639316,0.254821 c -4.201623,0.140152 -12.391315,0.71612 -18.199315,1.27993 l -10.56,1.025108 -2.066975,1.321249 -2.066974,1.321249 -2.438029,10.358822 C 20.912508,85.21701 19.121876,94.63307 19.121876,97.33631 V 99.08 h 1.61702 c 0.889361,0 4.021361,-0.62014 6.96,-1.37809 z M 208.18582,81.824528 c -4.47341,-1.311562 -6.66598,-2.945898 -9.07796,-6.766727 l -2.38598,-3.779647 V 67.45509 63.632024 l 2.01841,-5.394695 c 2.2888,-6.11737 6.0856,-10.869994 11.24872,-14.080521 L 213.52188,41.96 222.31889,41 l 8.797,-0.96 4.04755,0.691204 c 5.54486,0.946899 8.3095,2.982705 10.68193,7.865883 l 2.01534,4.148168 -1.75311,5.573581 -1.7531,5.573581 -2.97909,3.905846 c -1.6385,2.148215 -5.11984,5.538572 -7.73631,7.534126 l -4.75722,3.628279 -4.8,1.379633 c -6.19001,1.779149 -12.78871,2.395277 -15.89606,1.484227 z m 15.15598,-9.781686 c 2.23295,-1.05307 5.55718,-3.411942 7.38718,-5.241939 l 3.32726,-3.327266 2.00438,-5.357166 2.00437,-5.357168 -1.5827,-2.415515 -1.58272,-2.415514 -8.28884,0.631056 c -12.65863,0.963742 -13.4821,1.144498 -16.00294,3.512697 -1.29191,1.213686 -3.21675,3.999381 -4.27742,6.190433 l -1.92849,3.983731 v 4.427227 4.427228 l 2.60768,2.051199 2.60767,2.051198 4.83233,-0.622764 c 2.65778,-0.342521 6.65929,-1.484367 8.89224,-2.537437 z M 100.56445,61.496669 c -1.406584,-0.506891 -2.783004,-1.509453 -3.058694,-2.227916 -0.5628,-1.466612 0.28317,-4.888728 1.87163,-7.571235 l 1.055524,-1.782482 3.82184,-0.698873 3.82184,-0.698873 2.1253,0.786197 2.1253,0.786199 1.39734,3.344323 c 0.76854,1.839378 1.39735,3.780239 1.39735,4.313026 0,1.570018 -4.02857,3.628124 -8.16,4.168758 l -3.84,0.502497 z"
     id="path2405"
     inkscape:connector-curvature="0"
     sodipodi:nodetypes="csssccccsscccccsscsccsscsccssssscccsccccsscccssscssccccccsccscssccccccssssscccscscscscsscccsccsccscsscccsscsscscccsscccsccccsscscsccccccscscccccsscccccccccsscc" />
</svg>
