<?xml version="1.0" encoding="UTF-8" standalone="no"?>
<!-- Created with Inkscape (http://www.inkscape.org/) -->

<svg
   xmlns:dc="http://purl.org/dc/elements/1.1/"
   xmlns:cc="http://creativecommons.org/ns#"
   xmlns:rdf="http://www.w3.org/1999/02/22-rdf-syntax-ns#"
   xmlns:svg="http://www.w3.org/2000/svg"
   xmlns="http://www.w3.org/2000/svg"
   xmlns:sodipodi="http://sodipodi.sourceforge.net/DTD/sodipodi-0.dtd"
   xmlns:inkscape="http://www.inkscape.org/namespaces/inkscape"
   version="1.1"
   id="svg855"
   width="269.79926"
   height="178.41722"
   viewBox="0 0 269.79926 178.41722"
   sodipodi:docname="2.svg"
   inkscape:version="0.92.3 (2405546, 2018-03-11)">
  <metadata
     id="metadata861">
    <rdf:RDF>
      <cc:Work
         rdf:about="">
        <dc:format>image/svg+xml</dc:format>
        <dc:type
           rdf:resource="http://purl.org/dc/dcmitype/StillImage" />
        <dc:title></dc:title>
      </cc:Work>
    </rdf:RDF>
  </metadata>
  <defs
     id="defs859" />
  <sodipodi:namedview
     pagecolor="#ffffff"
     bordercolor="#666666"
     borderopacity="1"
     objecttolerance="10"
     gridtolerance="10"
     guidetolerance="10"
     inkscape:pageopacity="0"
     inkscape:pageshadow="2"
     inkscape:window-width="1366"
     inkscape:window-height="705"
     id="namedview857"
     showgrid="false"
     fit-margin-top="0.2"
     fit-margin-bottom="0.2"
     fit-margin-right="0.2"
     fit-margin-left="0.2"
     inkscape:zoom="6.8614411"
     inkscape:cx="17.757527"
     inkscape:cy="92.269311"
     inkscape:window-x="0"
     inkscape:window-y="30"
     inkscape:window-maximized="1"
     inkscape:current-layer="svg855" />
  <path
     style="fill:#000000;stroke-width:0.95999998"
     d="m 93.909326,176.24322 c -0.58724,-1.09726 -0.82505,-2.62738 -0.52845,-3.40028 0.56541,-1.47343 2.87761,-16.11065 4.41699,-27.96152 1.60982,-12.39305 3.754774,-46.463693 3.754404,-59.635433 l -3.4e-4,-12.832241 -2.601234,0.508811 c -1.43068,0.27984 -7.35323,1.23964 -13.16123,2.13287 -5.808,0.89324 -11.90833,2.26483 -13.55629,3.04799 -2.629316,1.24953 -3.069217,2.03085 -3.591659,6.37936 -0.327446,2.7255 -0.599117,9.64216 -0.603706,15.37037 -0.01037,12.949183 -1.141478,15.690243 -8.544689,20.706783 -12.25769,8.30602 -21.734719,11.1667 -34.183654,10.31845 -12.326689,-0.83991 -23.662091,-7.01932 -24.89082299,-13.56902 -1.02524,-5.465 1.64686099,-13.13396 6.09214799,-17.484543 4.440725,-4.34611 10.751431,-11.74905 18.292929,-14.66285 2.904,-1.12202 26.827034,-11.31941 28.49083,-12.0874 1.663797,-0.767986 3.715797,-1.396335 4.560001,-1.396335 1.847615,0 1.949169,-2.322287 0.444296,-10.159889 -1.576936,-8.212919 -2.065824,-8.505166 -9.635107,-5.759675 -3.494256,1.267418 -7.248442,2.78352 -8.342636,3.369114 -3.973168,2.126375 -29.476661,10.620409 -31.90285,10.625362 -1.370167,0.0029 -3.240599,-0.822979 -4.156517,-1.835052 -2.988145,-3.301863 -0.699859,-5.172526 10.664919,-8.718516 5.710545,-1.78178 15.35081,-5.134722 21.42281,-7.450981 6.072,-2.316259 14.366044,-5.346475 18.43121,-6.733814 7.220298,-2.464107 7.436734,-2.481234 9.36,-0.740703 1.4646,1.325446 1.968791,2.962825 1.968791,6.393729 0,2.536599 0.484512,7.869644 1.076698,11.851212 l 1.076697,7.239213 h 3.209262 c 1.76509,0 7.65258,-0.865027 13.0833,-1.922275 10.43462,-2.031407 45.305924,-7.497868 58.354054,-9.14764 7.19846,-0.910155 16.36461,-2.511193 24.83897,-4.338589 8.86158,-1.910893 12.60103,-1.350589 12.60103,1.888088 0,1.037908 -0.432,2.154095 -0.96,2.480417 -0.528,0.326322 -0.96,1.41016 -0.96,2.408529 0,1.573076 -3.76664,7.963291 -7.35117,12.471475 -0.62973,0.792 -4.396,5.76 -8.36951,11.03999 -3.97349,5.28 -9.38069,12.192 -12.016,15.36 -2.63531,3.168003 -4.45177,5.881633 -4.03659,6.030273 0.41517,0.14865 5.73457,-1.47841 11.82088,-3.61568 6.0863,-2.13728 14.90144,-4.729493 19.5892,-5.760473 4.68776,-1.031 12.19519,-3.12866 16.68319,-4.66149 7.14107,-2.43895 7.70906,-2.7903 4.54866,-2.81379 -5.77825,-0.0429 -12.33778,-3.98336 -14.88556,-8.94202 -3.39394,-6.60549 -2.39461,-12.888198 3.20812,-20.169369 2.39315,-3.110086 5.25081,-6.13616 6.35033,-6.724609 1.12744,-0.603384 4.66023,-0.900463 8.10197,-0.681309 5.34149,0.340121 6.5105,0.783738 9.37078,3.556032 3.87664,3.757373 5.90288,9.986579 4.93912,15.184108 -0.98605,5.317687 -5.18203,12.483237 -8.58792,14.665707 -3.99288,2.55861 -1.6784,2.4605 8.2071,-0.3479 4.41507,-1.25429 9.26674,-2.57141 10.7815,-2.92693 l 2.7541,-0.6464 -0.6138,-14.593072 c -1.18716,-28.225131 -1.4888,-57.8325786 -0.62685,-61.5281506 1.24401,-5.33355097 2.9042,-6.75403197 6.16001,-5.27058797 3.26746,1.48875897 3.73084,3.54220997 2.68211,11.88566857 -1.35502,10.780258 -0.39736,55.769272 1.38206,64.926422 0.56163,2.89028 0.3342,2.91171 16.22827,-1.52874 10.49126,-2.93104 14.89305,-3.15563 14.84947,-0.75768 -0.0396,2.18117 -1.77162,4.26586 -4.76947,5.74075 -6.04682,2.9749 -20.99348,7.41829 -34.97845,10.39849 -8.41415,1.79306 -23.75015,6.04058 -34.08,9.438943 -10.32986,3.39836 -23.31755,7.48082 -28.86155,9.07215 -5.544,1.59131 -14.66942,4.21999 -20.27871,5.84148 -11.54563,3.33755 -14.46206,3.59028 -16.61272,1.43961 -2.31786,-2.31785 -1.84893,-3.90001 2.46898,-8.33033 7.72511,-7.92621 24.55306,-29.350383 32.09069,-40.855624 3.00619,-4.588578 3.66445,-7.842435 1.2896,-6.374696 -0.82428,0.509429 -15.3949,3.017218 -44.71365,7.695789 l -10.71582,1.70999 -0.54622,10.631718 c -0.30042,5.84745 -0.75858,16.67972 -1.01812,24.071723 -1.05479,30.04131 -5.7625,69.98567 -8.44936,71.69194 -2.212904,1.40527 -5.436414,0.80808 -6.514824,-1.20695 z M 40.912162,120.69373 c 4.825973,-1.33252 12.36517,-6.50016 16.018364,-10.97957 l 3.226263,-3.95593 -0.176113,-11.232453 c -0.09686,-6.17785 -0.457914,-11.51426 -0.802336,-11.85867 -1.863107,-1.86312 -27.603179,7.16331 -37.889838,14.93943 -6.646286,5.024193 -13.405548,19.745543 -7.769025,22.660303 5.792289,2.9953 17.433604,3.17672 27.392685,0.42689 z M 200.5409,80.781977 c 3.23648,-1.67364 5.25922,-5.12567 6.65629,-11.359687 1.82994,-8.165519 -1.47536,-11.4431 -9.39052,-9.311771 -4.67698,1.25938 -7.52119,4.80836 -8.43542,10.525643 -0.79758,4.987765 0.88842,8.523235 4.89823,10.271345 3.59717,1.56823 2.97186,1.58075 6.27142,-0.12553 z M 102.01319,34.463534 c -2.208284,-1.47451 -3.371014,-4.951047 -2.315504,-6.923298 2.649534,-4.950668 7.691784,-4.041314 7.691784,1.387185 0,5.671441 -2.03512,7.767065 -5.37628,5.536113 z"
     id="path865"
     inkscape:connector-curvature="0"
     sodipodi:nodetypes="cccccccscsssssccssssccsssssscsssssssccsccccccccsccssscsccsccccsscccsscscsscccscsccccccssccscss" />
</svg>
